<svg width="42" height="42" viewBox="0 0 42 42" fill="none" xmlns="http://www.w3.org/2000/svg">
<path d="M20.9998 0.13501C9.49477 0.13501 0.134766 9.49501 0.134766 21C0.134766 32.505 9.49477 41.865 20.9998 41.865C32.5048 41.865 41.8648 32.505 41.8648 21C41.8648 9.49501 32.5438 0.13501 20.9998 0.13501ZM28.1758 13.122C28.3318 10.977 29.8528 8.55901 31.5688 8.67601C33.2848 8.75401 34.4938 11.406 34.3378 13.551C34.1818 15.696 32.6998 17.334 30.9838 17.178C29.2678 17.022 28.0588 15.228 28.1758 13.122ZM20.7658 4.54201C22.5208 3.95701 24.8998 6.21901 25.6018 8.52001C26.3038 10.821 25.5238 13.161 23.7298 13.707C21.9748 14.292 19.9078 12.888 19.1668 10.587C18.4258 8.28601 18.9718 5.12701 20.7658 4.54201ZM11.6008 7.46701C13.3558 6.88201 15.7348 9.14401 16.4368 11.445C17.1388 13.746 16.3588 16.086 14.5648 16.632C12.8098 17.217 10.7428 15.813 10.0018 13.512C9.26077 11.25 9.84577 8.05201 11.6008 7.46701ZM10.7038 23.73C9.41677 24.822 7.19377 24.354 5.86777 22.716C4.46377 21.078 3.91777 18.231 5.28277 17.178C6.56977 16.086 9.26077 17.139 10.6648 18.816C11.9908 20.415 12.0298 22.677 10.7038 23.73ZM35.6638 29.697C35.0788 31.296 33.5188 32.466 31.8418 32.232C30.8668 32.076 28.1368 30.087 24.7048 31.062L23.7298 31.335C20.7268 32.427 19.5178 35.781 18.7768 36.483C17.5678 37.653 15.5788 37.575 14.1748 36.639C12.7708 35.664 12.0688 33.987 11.9128 32.388C11.7568 30.711 12.1468 29.073 12.6148 27.435C13.7848 23.691 16.2028 19.518 20.1028 18.27C24.0028 17.022 28.4098 18.972 31.5298 21.351C32.8558 22.365 34.1038 23.496 35.0008 24.939C35.8588 26.304 36.2488 28.137 35.6638 29.697Z" fill="#1A4E8D"/>
<path d="M23.7485 13.563C25.5035 12.978 26.4005 10.638 25.6205 8.37602C24.9185 6.07502 22.5395 3.81302 20.7845 4.39802C19.0295 4.98302 18.4445 8.14202 19.1465 10.443C19.9265 12.744 21.9935 14.148 23.7485 13.563Z" fill="#9BEFE0"/>
<path d="M14.4687 16.563C16.2237 15.978 17.1207 13.638 16.3407 11.376C15.6387 9.07502 13.2597 6.81302 11.5047 7.39802C9.74975 7.98302 9.16475 11.142 9.86675 13.443C10.6467 15.744 12.6747 17.148 14.4687 16.563Z" fill="#9BEFE0"/>
<path d="M5.09205 17.1756C3.76605 18.2676 4.31205 21.0756 5.71605 22.7136C7.12005 24.3516 9.26505 24.8196 10.5521 23.7276C11.8391 22.6356 11.8391 20.4126 10.4741 18.7356C9.10905 17.0976 6.41805 16.0446 5.09205 17.1756Z" fill="#9BEFE0"/>
<path d="M31.1027 17.1211C32.8187 17.1991 34.3007 15.6001 34.4567 13.4941C34.6127 11.3881 33.4037 8.73606 31.6877 8.61906C29.9717 8.54106 28.4117 10.9201 28.2947 13.0651C28.1777 15.1321 29.4257 16.9651 31.1027 17.1211Z" fill="#9BEFE0"/>
</svg>
